<svg width="327" height="56" viewBox="0 0 327 56" fill="none" xmlns="http://www.w3.org/2000/svg">
<line x1="193.5" y1="-2.18557e-08" x2="193.5" y2="56" stroke="white"/>
<path d="M250.87 41V31.2H254.972C257.072 31.2 258.416 32.348 258.416 34.266C258.416 36.184 257.072 37.346 254.972 37.346H252.046V41H250.87ZM252.046 36.31H254.944C256.484 36.31 257.24 35.54 257.24 34.266C257.24 33.006 256.484 32.236 254.944 32.236H252.046V36.31Z" fill="white"/>
<path d="M242.913 31.2H249.031V32.236H244.089V35.414H248.639V36.45H244.089V39.964H249.073V41H242.913V31.2Z" fill="white"/>
<path d="M233.275 41.098C232.911 41.098 232.589 41 232.589 41V39.908C232.589 39.908 232.869 40.02 233.163 40.02C233.681 40.02 234.073 39.74 234.185 38.06C234.311 36.268 234.353 35.176 234.423 33.51L234.535 31.2H240.793V41H239.617V32.236H235.571L235.515 33.566C235.431 35.26 235.375 36.632 235.277 38.214C235.123 40.384 234.465 41.098 233.275 41.098Z" fill="white"/>
<path d="M223.773 41V31.2H224.907V39.404C224.991 39.194 225.327 38.634 225.327 38.634L229.975 31.2H231.193V41H230.059V32.782C229.975 32.992 229.639 33.552 229.639 33.552L224.991 41H223.773Z" fill="white"/>
<path d="M213.21 42.764V39.95H213.994C214.624 38.774 214.834 37.808 214.918 36.1L215.184 31.2H221.064V39.95H222.268V42.764H221.162V41H214.316V42.764H213.21ZM215.212 39.95H219.888V32.236H216.262L216.052 36.212C215.954 37.934 215.772 38.844 215.212 39.95Z" fill="white"/>
<path d="M318.51 12.192C317.642 12.192 317.068 11.59 317.068 10.736H317.95C317.95 11.1 318.16 11.366 318.51 11.366C318.846 11.366 319.056 11.1 319.056 10.736H319.938C319.938 11.59 319.378 12.192 318.51 12.192ZM314.786 23V13.2H315.92V21.404C316.004 21.194 316.34 20.634 316.34 20.634L320.988 13.2H322.206V23H321.072V14.782C320.988 14.992 320.652 15.552 320.652 15.552L316.004 23H314.786Z" fill="white"/>
<path d="M302.81 23V13.2H303.986V16.896H306.632C308.648 16.896 310.062 17.946 310.062 19.948C310.062 21.964 308.648 23 306.632 23H302.81ZM311.49 13.2H312.666V23H311.49V13.2ZM303.986 21.964H306.478C307.878 21.964 308.886 21.404 308.886 19.948C308.886 18.492 307.878 17.918 306.478 17.918H303.986V21.964Z" fill="white"/>
<path d="M293.376 13.2H294.552V17.47H299.522V13.2H300.698V23H299.522V18.534H294.552V23H293.376V13.2Z" fill="white"/>
<path d="M284.298 23V13.2H285.474V16.896H288.12C290.136 16.896 291.55 17.946 291.55 19.948C291.55 21.964 290.136 23 288.12 23H284.298ZM285.474 21.964H287.966C289.366 21.964 290.374 21.404 290.374 19.948C290.374 18.492 289.366 17.918 287.966 17.918H285.474V21.964Z" fill="white"/>
<path d="M274.66 23.098C274.296 23.098 273.974 23 273.974 23V21.908C273.974 21.908 274.254 22.02 274.548 22.02C275.066 22.02 275.458 21.74 275.57 20.06C275.696 18.268 275.738 17.176 275.808 15.51L275.92 13.2H282.178V23H281.002V14.236H276.956L276.9 15.566C276.816 17.26 276.76 18.632 276.662 20.214C276.508 22.384 275.85 23.098 274.66 23.098Z" fill="white"/>
<path d="M264.217 23L268.137 13.2H269.341L273.261 23H272.015L270.895 20.116H266.583L265.463 23H264.217ZM266.975 19.108H270.503L269.005 15.244C268.907 15.02 268.795 14.698 268.739 14.502C268.683 14.698 268.571 15.02 268.473 15.244L266.975 19.108Z" fill="white"/>
<path d="M255.737 23V13.2H256.871V21.404C256.955 21.194 257.291 20.634 257.291 20.634L261.939 13.2H263.157V23H262.023V14.782C261.939 14.992 261.603 15.552 261.603 15.552L256.955 23H255.737Z" fill="white"/>
<path d="M253.076 24.764V23H245.866V13.2H247.042V21.95H251.802V13.2H252.978V21.95H254.182V24.764H253.076Z" fill="white"/>
<path d="M236.323 23V13.2H237.457V21.404C237.541 21.194 237.877 20.634 237.877 20.634L242.525 13.2H243.743V23H242.609V14.782C242.525 14.992 242.189 15.552 242.189 15.552L237.541 23H236.323Z" fill="white"/>
<path d="M228.99 23.1819V21.9499H228.78C226.554 21.9499 224.622 20.5219 224.622 18.0999C224.622 15.6779 226.554 14.2499 228.78 14.2499H228.99V13.0179H230.18V14.2499H230.39C232.616 14.2499 234.534 15.6779 234.534 18.0999C234.534 20.5219 232.616 21.9499 230.39 21.9499H230.18V23.1819H228.99ZM228.696 20.9139H228.99V15.2859H228.696C227.072 15.2859 225.77 16.3219 225.77 18.0999C225.77 19.8779 227.072 20.9139 228.696 20.9139ZM230.18 20.9139H230.474C232.098 20.9139 233.386 19.8779 233.386 18.0999C233.386 16.3219 232.098 15.2859 230.474 15.2859H230.18V20.9139Z" fill="white"/>
<path d="M223.234 18.0999C223.234 21.1519 221.162 23.1959 218.488 23.1959C215.814 23.1959 213.742 21.1519 213.742 18.0999C213.742 15.0479 215.814 13.0039 218.488 13.0039C221.162 13.0039 223.234 15.0479 223.234 18.0999ZM218.488 22.1459C220.532 22.1459 222.058 20.5499 222.058 18.0999C222.058 15.6499 220.532 14.0539 218.488 14.0539C216.444 14.0539 214.918 15.6499 214.918 18.0999C214.918 20.5499 216.444 22.1459 218.488 22.1459Z" fill="white"/>
<path d="M168.63 32.8922L165.02 41.8167L161.409 32.8922H157.062V45.6121H160.223V37.5593L163.728 45.6121H166.31L169.814 37.5593V45.6121H172.976V32.8922H168.628H168.63ZM148.244 42.9678C150.197 42.9678 152.018 41.6065 152.018 39.2684C152.018 36.9304 150.197 35.5692 148.244 35.5692C146.29 35.5692 144.47 36.9304 144.47 39.2684C144.47 41.6065 146.29 42.9678 148.244 42.9678ZM148.244 32.535C151.833 32.535 155.397 34.7952 155.397 39.2666C155.397 43.7381 151.833 45.9983 148.244 45.9983C144.654 45.9983 141.09 43.7381 141.09 39.2666C141.09 34.7952 144.654 32.535 148.244 32.535ZM73.5301 35.7215H77.4364V45.6394H80.7617V35.7215H84.668V32.8958H73.5301V35.7215ZM124.415 37.5719C124.098 35.9787 122.858 35.0018 121.009 35.0018C119.266 35.0018 117.948 36.1329 117.472 37.5719H124.413H124.415ZM121.115 32.535C124.863 32.535 127.504 35.1812 127.504 38.9078V40.0387H117.421C117.632 41.9908 119.058 43.2252 121.011 43.2252C122.78 43.2252 123.519 42.4802 124.336 41.4779L126.977 42.7629C125.657 44.947 123.836 46 120.959 46C117.317 46 114.228 43.303 114.228 39.2684C114.228 35.2338 117.317 32.5369 121.117 32.5369M95.754 37.5719C95.4375 35.9787 94.1974 35.0018 92.3485 35.0018C90.6059 35.0018 89.2875 36.1329 88.8108 37.5719H95.7522H95.754ZM92.4546 32.535C96.2028 32.535 98.843 35.1812 98.843 38.9078V40.0387H88.7606C88.971 41.9908 90.3972 43.2252 92.3504 43.2252C94.1193 43.2252 94.8583 42.4802 95.6759 41.4779L98.3161 42.7629C96.996 44.947 95.1749 46 92.2982 46C88.6564 46 85.5674 43.303 85.5674 39.2684C85.5674 35.2338 88.6564 32.5369 92.4566 32.5369M101.887 40.115C101.729 42.0669 101.332 42.5038 100.647 42.5038C100.178 42.5038 99.9582 42.4529 99.6362 42.3713L99.6529 45.6682C99.6529 45.6682 100.066 45.7915 100.831 45.7915C103.656 45.7915 104.712 44.019 104.976 40.2417L105.293 35.7975H109.041V45.6121H112.366V32.8939H102.442L101.887 40.113V40.115ZM66.4771 42.9658C64.4717 42.9658 62.9934 41.5522 62.9934 39.2666C62.9934 36.981 64.5239 35.5673 66.4771 35.5673C67.6649 35.5673 68.6946 36.1075 69.5119 37.3145L72.3627 35.7215C71.4131 33.7422 69.3537 32.535 66.5031 32.535C62.7811 32.535 59.614 35.2066 59.614 39.2666C59.614 43.3266 62.6229 45.9983 66.5031 45.9983C69.3015 45.9983 71.1746 44.7657 72.4947 42.5817L69.7503 41.1171C68.9589 42.1955 68.1137 42.9678 66.4771 42.9678M50.8332 42.9658C52.7863 42.9658 54.6073 41.6048 54.6073 39.2666C54.6073 36.9285 52.7863 35.5673 50.8332 35.5673C48.88 35.5673 47.0589 36.9285 47.0589 39.2666C47.0589 41.6048 48.88 42.9658 50.8332 42.9658ZM50.8332 32.535C54.423 32.535 57.9867 34.7971 57.9867 39.2666C57.9867 43.7362 54.423 45.9983 50.8332 45.9983C47.2434 45.9983 43.6797 43.7381 43.6797 39.2666C43.6797 34.7952 47.2434 32.535 50.8332 32.535ZM35.9488 36.3376C38.3768 36.3376 39.4866 35.2066 39.4866 33.5119C39.4866 31.8172 38.3786 30.6863 35.9488 30.6863H31.145V36.3395H35.9488M36.0549 27.654C40.2256 27.654 42.9702 29.7348 42.9702 33.5119C42.9702 37.2891 40.2256 39.3698 36.0549 39.3698H31.145V45.6394H27.6614V27.654H36.0549ZM135.465 38.8044L141.641 45.6394H137.629L132.851 40.3722V45.6394H129.526V32.8958H132.851V37.5211L137.549 32.8958H141.481L135.463 38.8044H135.465Z" fill="white"/>
<path d="M1.82022 45.5176C1.84204 45.5273 1.86386 45.535 1.88762 45.5447C1.90554 45.5506 1.93145 45.5585 1.95911 45.5642C2.21721 45.6441 2.49108 45.6888 2.77704 45.6909H15.5154C16.1368 45.6909 16.4485 44.9546 16.0098 44.5223L7.73973 36.3874L7.73584 36.3914C5.987 38.0974 4.8317 39.223 3.98007 40.0566C3.22369 40.7967 2.7075 41.3049 2.22714 41.7821C1.62368 42.3722 1.2226 42.7657 1.22065 42.7676C0.926909 43.0734 0.746338 43.5154 0.746338 43.9693C0.746338 44.6821 1.19105 45.2625 1.82217 45.5176H1.82022Z" fill="#FF4F12"/>
<path d="M0.744013 43.9694C0.744013 43.5155 0.924585 43.0735 1.21852 42.7677C1.21852 42.7677 1.62135 42.3723 2.22482 41.7822C2.70322 41.3052 3.21942 40.7969 3.97774 40.0567C4.82937 39.2231 5.98468 38.0975 7.73351 36.3915C7.7376 36.3896 7.7376 36.3875 7.7376 36.3875C8.25166 35.8851 8.81753 35.334 9.44281 34.7263C9.45469 34.7146 9.46462 34.7049 9.47651 34.6932C12.1584 32.0777 15.9163 28.4105 21.3276 23.1209C21.8339 22.6244 21.8378 21.8181 21.3317 21.3215L10.1813 10.3724C9.675 9.87588 8.85512 9.87588 8.34905 10.3724L1.91315 16.6941C-0.28429 18.8501 0.0135461 20.2601 0.0135461 23.1561V42.9684C0.0135461 44.1389 0.76583 45.1321 1.81985 45.5177C1.18872 45.2626 0.744013 44.6822 0.744013 43.9694Z" fill="white"/>
</svg>
